<mxfile host="app.diagrams.net" modified="2021-05-24T12:51:59.188Z" agent="5.0 (Windows NT 10.0; Win64; x64) AppleWebKit/537.36 (KHTML, like Gecko) Chrome/90.0.4430.212 Safari/537.36" etag="sYpennKnoEsJT9-nAkrd" version="14.7.0" type="github">
  <diagram id="32V_mTtSQzlvwE7W_wEP" name="Page-1">
    <mxGraphModel dx="1392" dy="711" grid="1" gridSize="10" guides="1" tooltips="1" connect="1" arrows="1" fold="1" page="1" pageScale="1" pageWidth="850" pageHeight="1100" math="0" shadow="0">
      <root>
        <mxCell id="0" />
        <mxCell id="1" parent="0" />
        <mxCell id="dojqwDhkuBDQgAZHNu7s-1" value="" style="whiteSpace=wrap;html=1;aspect=fixed;" parent="1" vertex="1">
          <mxGeometry x="160" y="80" width="660" height="660" as="geometry" />
        </mxCell>
        <mxCell id="dojqwDhkuBDQgAZHNu7s-2" value="validates signatures" style="rhombus;whiteSpace=wrap;html=1;" parent="1" vertex="1">
          <mxGeometry x="345" y="220" width="80" height="80" as="geometry" />
        </mxCell>
        <mxCell id="dojqwDhkuBDQgAZHNu7s-3" value="Credentials Web adaptaer Ms" style="whiteSpace=wrap;html=1;aspect=fixed;" parent="1" vertex="1">
          <mxGeometry x="275" y="370" width="70" height="70" as="geometry" />
        </mxCell>
        <mxCell id="dojqwDhkuBDQgAZHNu7s-18" value="CustomerBs Ms" style="whiteSpace=wrap;html=1;shape=mxgraph.basic.cloud_rect" parent="1" vertex="1">
          <mxGeometry x="240" y="540" width="120" height="90" as="geometry" />
        </mxCell>
        <mxCell id="qOPz665RhC3NriRGY-xv-1" value="serviceUpdatePhone&lt;br&gt;cards.updatePhone(input)" style="rounded=0;whiteSpace=wrap;html=1;" parent="1" vertex="1">
          <mxGeometry x="590" y="420" width="150" height="70" as="geometry" />
        </mxCell>
        <mxCell id="qOPz665RhC3NriRGY-xv-8" value="STOP THE FLOW" style="strokeWidth=2;html=1;shape=mxgraph.flowchart.start_1;whiteSpace=wrap;" parent="1" vertex="1">
          <mxGeometry x="440" y="180" width="75" height="50" as="geometry" />
        </mxCell>
        <mxCell id="qOPz665RhC3NriRGY-xv-10" value="calls to SOA" style="text;html=1;strokeColor=none;fillColor=none;align=center;verticalAlign=middle;whiteSpace=wrap;rounded=0;" parent="1" vertex="1">
          <mxGeometry x="490" y="530" width="40" height="20" as="geometry" />
        </mxCell>
        <mxCell id="qOPz665RhC3NriRGY-xv-12" value="" style="line;strokeWidth=2;direction=south;html=1;" parent="1" vertex="1">
          <mxGeometry x="380" y="165" width="10" height="55" as="geometry" />
        </mxCell>
        <mxCell id="qOPz665RhC3NriRGY-xv-13" value="When users submit new&amp;nbsp; mobile number and gives password." style="text;html=1;strokeColor=none;fillColor=none;align=center;verticalAlign=middle;whiteSpace=wrap;rounded=0;" parent="1" vertex="1">
          <mxGeometry x="240" y="110" width="120" height="55" as="geometry" />
        </mxCell>
        <mxCell id="qOPz665RhC3NriRGY-xv-25" value="/updateUserDetaila" style="text;html=1;strokeColor=none;fillColor=none;align=center;verticalAlign=middle;whiteSpace=wrap;rounded=0;" parent="1" vertex="1">
          <mxGeometry x="300" y="460" width="40" height="20" as="geometry" />
        </mxCell>
        <mxCell id="qOPz665RhC3NriRGY-xv-26" value="" style="endArrow=classic;startArrow=classic;html=1;" parent="1" edge="1">
          <mxGeometry width="50" height="50" relative="1" as="geometry">
            <mxPoint x="307" y="535" as="sourcePoint" />
            <mxPoint x="307" y="440" as="targetPoint" />
          </mxGeometry>
        </mxCell>
        <mxCell id="qOPz665RhC3NriRGY-xv-27" value="" style="endArrow=classic;startArrow=classic;html=1;" parent="1" edge="1">
          <mxGeometry width="50" height="50" relative="1" as="geometry">
            <mxPoint x="310" y="370" as="sourcePoint" />
            <mxPoint x="310" y="260" as="targetPoint" />
          </mxGeometry>
        </mxCell>
        <mxCell id="qOPz665RhC3NriRGY-xv-28" value="/setPhones" style="text;html=1;strokeColor=none;fillColor=none;align=center;verticalAlign=middle;whiteSpace=wrap;rounded=0;" parent="1" vertex="1">
          <mxGeometry x="300" y="290" width="40" height="20" as="geometry" />
        </mxCell>
        <mxCell id="qOPz665RhC3NriRGY-xv-30" value="" style="endArrow=classic;startArrow=classic;html=1;" parent="1" edge="1">
          <mxGeometry width="50" height="50" relative="1" as="geometry">
            <mxPoint x="310" y="259.5" as="sourcePoint" />
            <mxPoint x="345" y="259.5" as="targetPoint" />
            <Array as="points" />
          </mxGeometry>
        </mxCell>
        <mxCell id="qOPz665RhC3NriRGY-xv-34" value="" style="shape=partialRectangle;whiteSpace=wrap;html=1;top=0;left=0;fillColor=none;" parent="1" vertex="1">
          <mxGeometry x="370" y="490" width="310" height="100" as="geometry" />
        </mxCell>
        <mxCell id="qOPz665RhC3NriRGY-xv-38" value="" style="endArrow=classic;startArrow=classic;html=1;exitX=-0.003;exitY=0.133;exitDx=0;exitDy=0;exitPerimeter=0;" parent="1" source="dojqwDhkuBDQgAZHNu7s-1" edge="1">
          <mxGeometry width="50" height="50" relative="1" as="geometry">
            <mxPoint x="280" y="164" as="sourcePoint" />
            <mxPoint x="390" y="164" as="targetPoint" />
            <Array as="points">
              <mxPoint x="330" y="164" />
            </Array>
          </mxGeometry>
        </mxCell>
        <mxCell id="qOPz665RhC3NriRGY-xv-39" value="" style="endArrow=classic;startArrow=classic;html=1;" parent="1" edge="1">
          <mxGeometry width="50" height="50" relative="1" as="geometry">
            <mxPoint x="384.5" y="225" as="sourcePoint" />
            <mxPoint x="384.5" y="165" as="targetPoint" />
          </mxGeometry>
        </mxCell>
        <mxCell id="qOPz665RhC3NriRGY-xv-40" value="" style="endArrow=classic;html=1;" parent="1" edge="1">
          <mxGeometry width="50" height="50" relative="1" as="geometry">
            <mxPoint x="679" y="560" as="sourcePoint" />
            <mxPoint x="679" y="490" as="targetPoint" />
          </mxGeometry>
        </mxCell>
        <mxCell id="qOPz665RhC3NriRGY-xv-41" value="" style="endArrow=classic;html=1;" parent="1" edge="1">
          <mxGeometry width="50" height="50" relative="1" as="geometry">
            <mxPoint x="470" y="260" as="sourcePoint" />
            <mxPoint x="470" y="230" as="targetPoint" />
          </mxGeometry>
        </mxCell>
        <mxCell id="qOPz665RhC3NriRGY-xv-42" value="validation fails" style="text;html=1;strokeColor=none;fillColor=none;align=center;verticalAlign=middle;whiteSpace=wrap;rounded=0;" parent="1" vertex="1">
          <mxGeometry x="440" y="270" width="40" height="20" as="geometry" />
        </mxCell>
        <mxCell id="qOPz665RhC3NriRGY-xv-48" value="" style="line;strokeWidth=2;html=1;" parent="1" vertex="1">
          <mxGeometry x="425" y="255" width="45" height="10" as="geometry" />
        </mxCell>
        <mxCell id="qOPz665RhC3NriRGY-xv-50" value="Req:&amp;nbsp;UpdateDetailRequest" style="text;html=1;strokeColor=none;fillColor=none;align=center;verticalAlign=middle;whiteSpace=wrap;rounded=0;" parent="1" vertex="1">
          <mxGeometry x="365" y="320" width="40" height="20" as="geometry" />
        </mxCell>
        <mxCell id="qOPz665RhC3NriRGY-xv-52" value="Res:&amp;nbsp;UpdateDetailResponse" style="text;html=1;strokeColor=none;fillColor=none;align=center;verticalAlign=middle;whiteSpace=wrap;rounded=0;" parent="1" vertex="1">
          <mxGeometry x="370" y="340" width="40" height="20" as="geometry" />
        </mxCell>
        <mxCell id="qOPz665RhC3NriRGY-xv-54" value="Req:&amp;nbsp;UpdateRequest" style="text;html=1;strokeColor=none;fillColor=none;align=center;verticalAlign=middle;whiteSpace=wrap;rounded=0;" parent="1" vertex="1">
          <mxGeometry x="340" y="480" width="40" height="20" as="geometry" />
        </mxCell>
        <mxCell id="qOPz665RhC3NriRGY-xv-55" value="Res:&amp;nbsp;Void" style="text;html=1;strokeColor=none;fillColor=none;align=center;verticalAlign=middle;whiteSpace=wrap;rounded=0;" parent="1" vertex="1">
          <mxGeometry x="310" y="500" width="40" height="20" as="geometry" />
        </mxCell>
      </root>
    </mxGraphModel>
  </diagram>
</mxfile>
